<svg xmlns="http://www.w3.org/2000/svg" viewBox="0 0 24 24" fill="#000000">
  <path d="M12 2C6.48 2 2 6.03 2 11c0 2.42 1.06 4.62 2.78 6.24L4 22l4.26-2.13c1.16.41 2.41.63 3.74.63 5.52 0 10-4.03 10-9S17.52 2 12 2zm.05 14.6a1.2 1.2 0 1 1 0-2.4 1.2 1.2 0 0 1 0 2.4zm1.86-5.91-.81.55c-.66.45-.95.83-.95 1.56v.3h-1.9v-.38c0-1.18.48-1.91 1.36-2.51l1-.67c.43-.29.69-.66.69-1.15 0-.77-.63-1.29-1.56-1.29-1 0-1.72.55-2.33 1.36L8.03 7.31C8.9 6.08 10.15 5.2 12.2 5.2c2.08 0 3.7 1.16 3.7 3.1 0 1.06-.51 1.87-1.99 2.39z"/>
</svg>
